<?xml version="1.0" encoding="UTF-8"?>
<svg width="54px" height="54px" viewBox="0 0 54 54" version="1.1" xmlns="http://www.w3.org/2000/svg" xmlns:xlink="http://www.w3.org/1999/xlink">
    <!-- Generator: Sketch 46.2 (44496) - http://www.bohemiancoding.com/sketch -->
    <title>btn_add</title>
    <desc>Created with Sketch.</desc>
    <defs></defs>
    <g id="Symbols" stroke="none" stroke-width="1" fill="none" fill-rule="evenodd">
        <g id="btn_add">
            <circle id="btn-circle" fill="#0098FD" cx="27" cy="27" r="27"></circle>
            <path d="M26.5,26.5 L19.5,26.5 C18.9477153,26.5 18.5,26.9477153 18.5,27.5 C18.5,28.0522847 18.9477153,28.5 19.5,28.5 L26.5,28.5 L26.5,35.5 C26.5,36.0522847 26.9477153,36.5 27.5,36.5 C28.0522847,36.5 28.5,36.0522847 28.5,35.5 L28.5,28.5 L35.5,28.5 C36.0522847,28.5 36.5,28.0522847 36.5,27.5 C36.5,26.9477153 36.0522847,26.5 35.5,26.5 L28.5,26.5 L28.5,19.5 C28.5,18.9477153 28.0522847,18.5 27.5,18.5 C26.9477153,18.5 26.5,18.9477153 26.5,19.5 L26.5,26.5 Z" id="ic_plus" fill="#FFFFFF" fill-rule="nonzero"></path>
        </g>
    </g>
</svg>